<?xml version="1.0" encoding="UTF-8"?>
<svg width="158px" height="27px" viewBox="0 0 158 27" version="1.1" xmlns="http://www.w3.org/2000/svg" xmlns:xlink="http://www.w3.org/1999/xlink">
    <!-- Generator: Sketch 48.2 (47327) - http://www.bohemiancoding.com/sketch -->
    <title>logotype</title>
    <desc>Created with Sketch.</desc>
    <defs></defs>
    <g id="Page-1" stroke="none" stroke-width="1" fill="none" fill-rule="evenodd">
        <g id="logotype" fill="#2B2B2C">
            <polygon id="Fill-1" points="6.41099142 0.912466667 18.0643391 14.2144667 18.1009571 0.912466667 21.819721 0.912466667 21.7675064 19.9711333 18.4990086 19.9711333 6.77649356 6.45113333 6.73919742 19.9711333 3.02043348 19.9711333 3.07332618 0.912466667"></polygon>
            <polygon id="Fill-2" points="38.4030189 0.912466667 38.3948815 3.79046667 29.4797485 3.79046667 29.4661863 8.7978 38.0015768 8.7978 37.9934395 11.6764667 29.4580489 11.6764667 29.4431305 17.0924667 38.555594 17.0924667 38.5474567 19.9711333 25.6321433 19.9711333 25.6850361 0.912466667"></polygon>
            <path d="M48.3737004,0.6664 C50.2893657,0.6664 52.132473,1.1304 53.9050567,2.0584 L53.8962412,5.3324 C51.8619064,4.14106667 50.0554172,3.54506667 48.4788077,3.54506667 C47.5213142,3.54506667 46.7713227,3.72506667 46.2301897,4.0844 C45.6897348,4.44373333 45.4184901,4.92373333 45.4164558,5.52306667 C45.4144215,6.2424 45.9148678,6.9064 46.918473,7.51506667 C47.1998893,7.69773333 48.2821554,8.20773333 50.1673056,9.04373333 C51.780533,9.7804 52.9428163,10.5984 53.6534773,11.4990667 C54.3641382,12.4004 54.7181124,13.4824 54.7147219,14.7457333 C54.7099751,16.3830667 54.0983185,17.7050667 52.8797519,18.7090667 C51.6611854,19.7144 50.0838979,20.2164 48.1506017,20.2164 C46.8920266,20.2164 45.8104386,20.0824 44.9051597,19.8144 C43.9998807,19.5457333 42.9854258,19.0844 41.8597605,18.4297333 L41.8699322,14.8004 C43.9680094,16.4924 45.9474172,17.3384 47.8067991,17.3384 C48.735812,17.3384 49.4878378,17.1424 50.0615202,16.7510667 C50.6345245,16.3610667 50.9234,15.8424 50.9247562,15.1964 C50.9274687,14.3144 50.4317691,13.5957333 49.4376575,13.0410667 C48.6130738,12.6044 47.5484386,12.0810667 46.2451082,11.4724 C44.6976575,10.7904 43.5421554,9.99373333 42.7799579,9.08506667 C42.0170824,8.17573333 41.6373399,7.1204 41.6407305,5.91906667 C41.6454773,4.31906667 42.263915,3.04306667 43.4960438,2.0924 C44.7295288,1.1424 46.3549622,0.6664 48.3737004,0.6664" id="Fill-3"></path>
            <polygon id="Fill-5" points="74.5270403 0.912466667 74.518903 3.79046667 67.5329974 3.79046667 67.4882421 19.9711333 63.6860704 19.9711333 63.7308258 3.79046667 56.7442421 3.79046667 56.7523794 0.912466667"></polygon>
            <polygon id="Fill-7" points="90.1726343 0.912466667 90.164497 3.79046667 81.2493639 3.79046667 81.2358017 8.7978 89.7711923 8.7978 89.7630549 11.6764667 81.2276644 11.6764667 81.2127459 17.0924667 90.3252094 17.0924667 90.3170721 19.9711333 77.4017588 19.9711333 77.4546515 0.912466667"></polygon>
            <path d="M100.669802,9.044 C101.664591,9.044 102.447132,8.80266667 103.016746,8.32066667 C103.585682,7.838 103.871845,7.17933333 103.873879,6.34133333 C103.876591,5.46933333 103.596531,4.81666667 103.034377,4.38466667 C102.472222,3.95266667 101.670694,3.73666667 100.628437,3.73666667 L98.2618275,3.73666667 L98.246909,9.044 L100.669802,9.044 Z M101.551347,0.912666667 C103.400557,0.912666667 104.906643,1.40866667 106.06757,2.39933333 C107.229175,3.39133333 107.808282,4.68266667 107.803536,6.27466667 C107.800823,7.35666667 107.509235,8.3 106.92945,9.10466667 C106.350342,9.91 105.491853,10.544 104.35466,11.0073333 C104.982591,11.336 105.539999,11.7806667 106.026883,12.3446667 C106.513767,12.9086667 107.11593,13.8593333 107.835407,15.1966667 C109.031596,17.5066667 109.918566,19.098 110.499029,19.9713333 L106.258797,19.9713333 C105.969244,19.5533333 105.576617,18.8846667 105.080918,17.966 C103.998652,15.938 103.203905,14.5713333 102.698033,13.866 C102.19284,13.162 101.705956,12.6613333 101.237381,12.3653333 C100.768806,12.0706667 100.229707,11.9213333 99.620085,11.9213333 L98.2394498,11.9213333 L98.2170721,19.9713333 L94.4135442,19.9713333 L94.4664369,0.912666667 L101.551347,0.912666667 Z" id="Fill-9"></path>
            <polygon id="Fill-11" points="142.726961 0.912466667 148.256961 13.1498 153.712368 0.912466667 157.698986 0.912466667 148.956094 20.2164667 147.631742 20.2164667 138.713896 0.912466667"></polygon>
            <path d="M133.443952,25.5042667 C134.848321,24.6442667 136.110965,23.5522667 137.147797,22.2969333 L144.854536,22.2969333 L147.175712,23.9009333 L144.854536,25.5042667 L133.443952,25.5042667 Z" id="Fill-14"></path>
            <path d="M0,25.5042667 L1.45048069,22.2969333 L125.447931,22.2969333 C130.596833,22.2969333 134.786884,18.1776 134.786884,13.1142667 C134.786884,8.05093333 130.596833,3.9316 125.447931,3.9316 C120.297674,3.9316 116.106944,8.05093333 116.106944,13.1142667 C116.106944,15.8109333 117.312627,18.3482667 119.37612,20.0856 L115.0457,20.0856 C113.605391,18.0176 112.844549,15.6102667 112.844549,13.1142667 C112.844549,6.28226667 118.498644,0.724266667 125.447931,0.724266667 C132.396541,0.724266667 138.049957,6.28226667 138.049957,13.1142667 C138.049957,19.9456 132.396541,25.5042667 125.447931,25.5042667 L0,25.5042667 Z" id="Fill-16"></path>
        </g>
    </g>
</svg>
